<svg width="16" height="16" viewBox="0 0 32 16" xmlns="http://www.w3.org/2000/svg" 
><defs>
    <style>.prefix__cls-1{fill:#C5C5C5}</style>
    </defs>
    <path class="prefix__cls-1" d="M8.87 13.16s-.08-.08-.14-.11-.12-.04-.2-.04-.15.01-.2.04c-.06.03-.1.06-.14.11-.03.04-.06.1-.08.15s-.02.12-.02.18 0 .11.02.17a.435.435 0 00.22.26c.06.03.12.04.2.04s.15-.01.2-.04.1-.06.14-.11c.03-.04.06-.09.08-.15s.02-.11.02-.17 0-.12-.02-.18-.04-.11-.08-.15zM7.1 13.16s-.08-.08-.14-.11-.12-.04-.2-.04-.15.01-.2.04c-.06.03-.1.06-.14.11-.03.04-.06.1-.08.15s-.02.12-.02.18 0 .11.02.17a.435.435 0 00.22.26c.06.03.12.04.2.04s.15-.01.2-.04.1-.06.14-.11c.03-.04.06-.09.08-.15s.02-.11.02-.17 0-.12-.02-.18-.04-.11-.08-.15z"/><path class="prefix__cls-1" d="M4.58 12.39l-1.52 2.19h11.26l1.51-2.19H4.58zm1.26.66h-.49v1.13h-.36v-1.13H4.5v-.26h1.33v.26zm1.66.72c-.04.09-.09.16-.16.23a.874.874 0 01-.59.21.874.874 0 01-.59-.21.663.663 0 01-.21-.51c0-.1.02-.2.05-.29.04-.09.09-.17.16-.23.07-.07.15-.12.25-.15.1-.04.21-.06.34-.06s.24.02.34.06.18.09.25.15c.07.07.12.14.16.23.04.09.05.18.05.29s-.02.19-.05.28zm1.77 0c-.04.09-.09.16-.16.23a.874.874 0 01-.59.21.874.874 0 01-.59-.21.663.663 0 01-.21-.51c0-.1.02-.2.05-.29.04-.09.09-.17.16-.23.07-.07.15-.12.25-.15.1-.04.21-.06.34-.06s.24.02.34.06.18.09.25.15c.07.07.12.14.16.23.04.09.05.18.05.29s-.02.19-.05.28zm1.45.4H9.57v-1.38h.36v1.13h.79v.26zm1.25 0l-.49-.62-.2.18v.44h-.36v-1.38h.36v.57l.63-.57h.45l-.63.55.7.84h-.45zm.95 0h-.36v-1.38h.36v1.38zm1.03-1.13v1.13h-.36v-1.13h-.49v-.26h1.33v.26h-.49zM10.74 10.77c-.49-.32-.88-.72-1.17-1.21-.29-.49-.43-1.07-.42-1.75h2.63c0 .37.07.68.23.94.15.26.35.46.6.62.25.16.54.28.87.35.33.08.68.12 1.04.12.24 0 .5-.02.78-.05.28-.04.54-.1.78-.21.24-.1.44-.24.61-.42.16-.18.24-.41.24-.68 0-.3-.11-.54-.32-.72a2.56 2.56 0 00-.84-.46c-.35-.12-.74-.23-1.18-.32-.44-.09-.88-.19-1.33-.31-.46-.1-.91-.23-1.35-.38-.44-.15-.83-.34-1.18-.58-.31-.21-.57-.48-.78-.79l-4.64 6.61h7.41l-.29-.06c-.64-.15-1.21-.38-1.7-.7zM17.64 1.04c.46.29.83.65 1.1 1.1.27.45.41.98.41 1.62h-2.63c-.02-.33-.1-.6-.23-.81-.13-.21-.31-.38-.53-.51-.22-.12-.47-.21-.75-.26-.28-.05-.59-.08-.93-.08-.22 0-.44.02-.66.06-.22.04-.42.11-.6.21-.18.1-.33.23-.44.38-.12.15-.17.35-.17.58 0 .21.05.39.14.52.09.13.27.26.55.37.27.11.65.23 1.13.34.48.11 1.1.26 1.88.43.23.04.55.12.96.22.41.11.82.28 1.22.51.4.24.75.55 1.05.94.13.17.23.36.3.58l2.27-3.23L24.33.26h-9.07c.28.03.55.07.82.13.59.13 1.12.34 1.58.62zM6.24 2.82h3.08L11.13.29H.25V2.82H3.2v8.72l.01-.02 3.03-4.25V2.82zM22.68 11.51h2.5V7.57h2.63c.71 0 1.32-.1 1.82-.31s.91-.48 1.22-.82c.31-.34.54-.73.69-1.17.14-.44.22-.89.22-1.35s-.07-.92-.22-1.36a3.1 3.1 0 00-.69-1.17c-.31-.34-.72-.61-1.22-.82a3.98 3.98 0 00-1.21-.28h-2.46l-3.28 4.73v6.5zm2.5-9.31h1.94c.29 0 .56.02.83.06.27.04.5.13.7.25.2.12.36.3.49.52.12.22.18.52.18.88s-.06.65-.18.88c-.12.22-.28.4-.49.52-.2.12-.44.21-.7.25-.27.04-.54.06-.83.06h-1.94V2.2z"/></svg>