<?xml version="1.0" encoding="UTF-8"?>
<svg id="Layer_1" data-name="Layer 1" xmlns="http://www.w3.org/2000/svg" viewBox="0 0 32 32">
  <defs>
    <style>
      .cls-1 {
        fill: #00acd8;
      }
    </style>
  </defs>
  <g>
    <path class="cls-1" d="M22.09.04c.63,2.95,1.13,6.35,3.83,8.08,1.68,1.08,3.91,1.47,5.82,1.88,1.29.97-2.64,1.53-3.13,1.68-3.68,1.15-4.81,2.72-5.9,6.41-.2.68-.37,2.89-1.06,2.89-.77,0-.94-2.79-1.15-3.52-.96-3.28-2.67-4.81-5.8-5.79-.61-.19-3.45-.56-3.34-1.25.1-.59,2.96-1,3.59-1.2,2.45-.8,4.1-2.01,5.11-4.51.4-.99.83-3.92,1.16-4.41.22-.32.49-.35.85-.27Z"/>
    <path class="cls-1" d="M12.21,16.31c.11.15.39,1.95.65,2.49.78,1.66,2.37,1.98,3.96,2.44l.18.63c-1.66.15-3.29.8-4.12,2.37-.43.81-.4,1.48-.65,2.23-.52,1.59-1.11-1.63-1.31-2.07-.97-2.15-2.24-1.75-3.89-2.51-1.36-.63,1.16-.98,1.68-1.19,1.09-.44,1.81-1.07,2.27-2.19.25-.61.36-1.83.64-2.23.16-.23.52-.06.58.04Z"/>
    <path class="cls-1" d="M28.96,2.55c.06,1.16.75,1.63,1.76,1.9-.38.35-.84.33-1.24.71-.48.45-.38,1.03-.87,1.36-.04-1.33-.9-1.53-1.76-2.16.62-.07,1.14-.39,1.48-.92.23-.36.11-1.01.63-.89Z"/>
  </g>
  <path class="cls-1" d="M27.83,15.68v11.36c0,1.64-1.3,2.97-2.9,2.97H4.83c-1.6,0-2.9-1.33-2.9-2.97V8.49c0-1.64,1.3-2.97,2.9-2.97h8.26l.58-.57v-.78l-.69-.62H4.83C2.17,3.54,0,5.76,0,8.49v18.56c0,2.73,2.17,4.95,4.83,4.95h20.1c2.66,0,4.83-2.22,4.83-4.95v-11.36l-.53-.5h-.95l-.46.5Z"/>
</svg>